<svg width="25" height="24" viewBox="0 0 25 24" fill="none" xmlns="http://www.w3.org/2000/svg">
<g id="Messenger" clip-path="url(#clip0_884_2656)">
<path id="Vector" d="M12.5003 3C17.5702 3 21.5007 6.71443 21.5007 11.7303C21.5007 16.7462 17.5702 20.4606 12.5003 20.4606C11.6202 20.4629 10.7438 20.3467 9.89473 20.115C9.73525 20.0712 9.56553 20.0836 9.41411 20.1501L7.62755 20.9386C7.51966 20.9862 7.40171 21.0067 7.28407 20.9981C7.16643 20.9895 7.0527 20.9521 6.95288 20.8893C6.85307 20.8265 6.77021 20.7401 6.71161 20.6377C6.65301 20.5353 6.62046 20.4201 6.61681 20.3022L6.56821 18.7002C6.56485 18.6027 6.54165 18.5069 6.50002 18.4187C6.4584 18.3305 6.39922 18.2517 6.3261 18.1872C4.57554 16.6211 3.5 14.3548 3.5 11.7303C3.5 6.71443 7.42954 3 12.5003 3ZM7.09563 14.2837C6.84182 14.686 7.33684 15.1396 7.71575 14.8516L10.5554 12.697C10.6491 12.6262 10.7633 12.5879 10.8807 12.5879C10.9981 12.5879 11.1124 12.6262 11.2061 12.697L13.3086 14.272C13.4578 14.3841 13.6286 14.464 13.8103 14.5067C13.9919 14.5494 14.1805 14.554 14.364 14.5202C14.5475 14.4863 14.7221 14.4148 14.8766 14.3102C15.0311 14.2055 15.1622 14.0699 15.2616 13.912L17.905 9.71784C18.1588 9.31463 17.6638 8.86101 17.2849 9.14812L14.4453 11.3046C14.3516 11.3753 14.2374 11.4136 14.1199 11.4136C14.0025 11.4136 13.8883 11.3753 13.7946 11.3046L11.6912 9.72954C11.542 9.61763 11.3712 9.53784 11.1897 9.49521C11.0081 9.45258 10.8197 9.44803 10.6362 9.48186C10.4528 9.51568 10.2784 9.58714 10.124 9.69174C9.96956 9.79633 9.83849 9.93178 9.73903 10.0896L7.09563 14.2837Z" fill="#E4E4E4"/>
</g>
<defs>
<clipPath id="clip0_884_2656">
<rect width="24" height="24" fill="white" transform="translate(0.5)"/>
</clipPath>
</defs>
</svg>
