<svg width="20" height="20" viewBox="0 0 20 20" fill="none" xmlns="http://www.w3.org/2000/svg">
<g id="Group">
<path id="Vector" d="M10 19C14.9707 19 19 14.9707 19 10C19 5.0293 14.9707 1 10 1C5.0293 1 1 5.0293 1 10C1 14.9707 5.0293 19 10 19Z" stroke="#B5AB9A" stroke-width="1.5" stroke-linecap="round" stroke-linejoin="round"/>
<path id="Vector_2" d="M1 10H19" stroke="#B5AB9A" stroke-width="1.5" stroke-linecap="round" stroke-linejoin="round"/>
<path id="Vector_3" d="M10.0004 19C11.9885 19 13.6004 14.9707 13.6004 10C13.6004 5.0293 11.9885 1 10.0004 1C8.01229 1 6.40039 5.0293 6.40039 10C6.40039 14.9707 8.01229 19 10.0004 19Z" stroke="#B5AB9A" stroke-width="1.5" stroke-linecap="round" stroke-linejoin="round"/>
<path id="Vector_4" d="M3.63574 3.76392C4.47053 4.6009 5.46249 5.26467 6.55462 5.71706C7.64675 6.16945 8.81752 6.40155 9.99964 6.40002C11.1818 6.40155 12.3525 6.16945 13.4447 5.71706C14.5368 5.26467 15.5288 4.6009 16.3635 3.76392M16.3635 16.2361C15.5288 15.3991 14.5368 14.7354 13.4447 14.283C12.3525 13.8306 11.1818 13.5985 9.99964 13.6C8.81752 13.5985 7.64675 13.8306 6.55462 14.283C5.46249 14.7354 4.47053 15.3991 3.63574 16.2361" stroke="#B5AB9A" stroke-width="1.5" stroke-linecap="round" stroke-linejoin="round"/>
</g>
</svg>
