<svg width="18" height="18" viewBox="0 0 18 18" fill="none" xmlns="http://www.w3.org/2000/svg">
<g id="zalo-seeklogo.com 1" clip-path="url(#clip0_884_1717)">
<path id="Intersect" fill-rule="evenodd" clip-rule="evenodd" d="M11.3672 9.16509C11.4854 9.08012 11.5601 8.94073 11.5601 8.78813C11.5679 8.00523 11.5718 7.22232 11.5601 6.43941C11.5562 6.12624 11.2667 5.9266 10.9577 5.98923C10.7973 6.02055 10.6995 6.13407 10.6057 6.25542C10.1167 5.82874 9.57688 5.80134 9.04489 6.11841C8.94148 6.17899 8.84854 6.24567 8.76572 6.31792C8.33875 6.6944 8.18541 7.22166 8.25082 7.81732C8.32514 8.4828 8.6146 9.02692 9.31088 9.25005C9.74508 9.39097 10.148 9.34008 10.5039 9.05041C10.5978 8.97603 10.6252 8.99169 10.6917 9.07389C10.8208 9.23831 11.0438 9.30094 11.2393 9.22656C11.286 9.21254 11.3289 9.19161 11.3672 9.16509ZM13.3164 7.70772C13.3018 8.62487 14.012 9.33229 14.9417 9.33379C15.0027 9.33379 15.0648 9.33071 15.1276 9.32443C16.0624 9.23048 16.6688 8.52977 16.6375 7.53939C16.6069 6.58394 15.9127 5.92326 14.9516 5.92163C14.9295 5.92164 14.9073 5.92199 14.885 5.92269C14.0305 5.94763 13.4061 6.5726 13.3244 7.44332C13.3164 7.52918 13.3136 7.61742 13.3164 7.70772ZM12.9739 5.54905C12.9737 5.39681 12.9732 5.24468 12.9722 5.0928C12.9722 4.77964 12.7727 4.58391 12.4754 4.58783C12.2136 4.58783 12.0318 4.74798 11.9966 5.00164C11.9928 5.02841 11.9908 5.05621 11.9904 5.08497C11.9878 5.20748 11.9886 5.32826 11.9895 5.44961C11.9899 5.5105 11.9904 5.57153 11.9904 5.63301V8.74507C11.9904 8.74793 11.9904 8.75079 11.9904 8.75364C11.9939 8.99273 12.1413 9.19976 12.3346 9.25005C12.3346 9.25006 12.3347 9.25007 12.3347 9.25008C12.5893 9.32016 12.8507 9.18137 12.9387 8.93876C12.944 8.92415 12.9487 8.90916 12.9527 8.89382C12.9644 8.84685 12.9722 8.79988 12.9683 8.74899C12.9742 8.29391 12.9734 7.83884 12.9727 7.38376C12.9725 7.23208 12.9722 7.0804 12.9722 6.92872C12.9722 6.72372 12.9727 6.51915 12.9731 6.31472C12.9733 6.20549 12.9736 6.09631 12.9737 5.98712C12.9739 5.84113 12.974 5.69515 12.9739 5.54905ZM9.38521 8.15789C9.2835 8.02088 9.22874 7.85647 9.22092 7.68423C9.217 7.13228 9.5182 6.79955 9.94849 6.82695C10.1323 6.83086 10.3045 6.9209 10.414 7.07356C10.633 7.37107 10.633 7.86039 10.414 8.15789C10.3749 8.20878 10.3318 8.25184 10.2849 8.28707C9.99934 8.49846 9.59644 8.43974 9.38521 8.15789ZM15.3662 8.27924C15.0845 8.49846 14.6816 8.44365 14.4665 8.16181C14.3491 8.00131 14.2905 7.8095 14.2983 7.61377C14.2983 7.12445 14.5956 6.80346 15.018 6.82695C15.2019 6.83086 15.374 6.92481 15.4835 7.07356C15.7065 7.37107 15.7065 7.87213 15.4796 8.16964C15.4444 8.20878 15.4092 8.24793 15.3662 8.27924Z" fill="#B5AB9A"/>
<path id="Vector" d="M5.45774 17.0752C4.38986 17.0752 3.31805 17.1104 2.25017 17.0713C0.986693 17.0204 0.0205078 15.9596 0.0205078 14.6952C0.0205078 10.6123 0.0283312 6.52943 0.0205078 2.44264C0.0205078 1.04515 1.11187 0.0704246 2.36752 0.0351937C3.68184 -3.72473e-05 5.00008 0.0273646 6.31831 0.0273646C6.34178 0.0273646 6.37308 0.0156209 6.38481 0.0547664C6.37699 0.125228 6.30658 0.133057 6.26355 0.160459C5.48904 0.614547 4.78102 1.15867 4.18645 1.83197C3.20462 2.9437 2.52398 4.21984 2.29319 5.70346C1.88638 8.32229 2.70392 10.5457 4.55415 12.4012C4.88273 12.734 4.92576 12.9923 4.66367 13.4386C4.34683 13.9749 3.86569 14.3389 3.35326 14.6717C3.2985 14.703 3.24373 14.7421 3.18897 14.7774C3.10682 14.8478 3.15768 14.8831 3.22809 14.9144C3.24373 14.9496 3.26329 14.9809 3.28676 15.0122C3.7366 15.4115 4.16298 15.8382 4.605 16.2453C4.81232 16.4371 5.01964 16.6368 5.21913 16.8364C5.30128 16.9108 5.43819 16.9343 5.45774 17.0752Z" fill="#B5AB9A"/>
<path id="Vector_2" d="M5.45817 17.0753C5.43862 16.9383 5.30171 16.9148 5.21956 16.8326C5.02007 16.6291 4.81275 16.4333 4.60543 16.2415C4.16341 15.8344 3.73703 15.4077 3.28719 15.0084C3.26372 14.9771 3.24416 14.9458 3.22852 14.9106C4.22599 15.1063 5.2 14.9732 6.15836 14.6796C6.48303 14.5817 6.8077 14.4839 7.13628 14.4017C7.35925 14.343 7.59395 14.3547 7.80909 14.433C10.2891 15.2864 12.7378 15.2081 15.1474 14.1511C16.1292 13.7166 17.025 13.106 17.7839 12.3426C17.823 12.3035 17.8504 12.2448 17.9208 12.2408C17.956 12.2956 17.9364 12.3544 17.9364 12.4131V14.7031C17.9443 16.0106 16.8959 17.0753 15.5894 17.0871H15.5699C14.1617 17.0949 12.7535 17.0871 11.3453 17.0871H5.69287C5.61464 17.0792 5.53641 17.0753 5.45817 17.0753Z" fill="#B5AB9A"/>
<path id="Vector_3" d="M6.06775 8.31455C6.65841 8.31455 7.21387 8.31063 7.76541 8.31455C8.07444 8.31846 8.24264 8.44764 8.27393 8.69426C8.30914 9.00351 8.1292 9.21098 7.7928 9.21489C7.1591 9.22272 6.52932 9.21881 5.89563 9.21881C5.71178 9.21881 5.53184 9.22664 5.348 9.21489C5.12112 9.20315 4.89815 9.15617 4.78863 8.9213C4.6791 8.68643 4.75733 8.47504 4.90598 8.28323C5.50837 7.51598 6.11469 6.74481 6.721 5.97756C6.7562 5.93059 6.79141 5.88361 6.82661 5.84055C6.78749 5.77401 6.73273 5.80532 6.68579 5.80141C6.26333 5.79749 5.83696 5.80141 5.41449 5.79749C5.3167 5.79749 5.21891 5.78575 5.12503 5.76618C4.90206 5.71529 4.76516 5.49216 4.81601 5.27294C4.85121 5.12419 4.96856 5.00284 5.11721 4.96761C5.21109 4.94412 5.30888 4.93238 5.40667 4.93238C6.10295 4.92846 6.80314 4.92846 7.49942 4.93238C7.62459 4.92846 7.74586 4.94412 7.86712 4.97544C8.13311 5.06547 8.24655 5.31209 8.14094 5.57045C8.04706 5.79358 7.89841 5.98539 7.74977 6.17721C7.23734 6.83093 6.72491 7.48075 6.21248 8.12665C6.16945 8.17754 6.13033 8.22843 6.06775 8.31455Z" fill="#B5AB9A"/>
<path id="Vector (Stroke)" fill-rule="evenodd" clip-rule="evenodd" d="M2.58269 0.0782909C1.2 0.0782909 0.0792102 1.1999 0.0792102 2.5836V14.4447C0.0792102 15.8284 1.2 16.95 2.58269 16.95H15.4169C16.7996 16.95 17.9204 15.8284 17.9204 14.4447V2.5836C17.9204 1.1999 16.7996 0.0782909 15.4169 0.0782909H2.58269ZM0.000976562 2.5836C0.000976562 1.15666 1.15679 0 2.58269 0H15.4169C16.8428 0 17.9986 1.15666 17.9986 2.5836V14.4447C17.9986 15.8716 16.8428 17.0283 15.4169 17.0283H2.58269C1.15679 17.0283 0.000976562 15.8716 0.000976562 14.4447V2.5836Z" fill="#B5AB9A"/>
</g>
<defs>
<clipPath id="clip0_884_1717">
<rect width="18" height="17.0909" fill="white"/>
</clipPath>
</defs>
</svg>
