<svg width="24" height="24" viewBox="0 0 24 24" fill="none" xmlns="http://www.w3.org/2000/svg">
<g id="Social">
<path id="Vector" d="M19 10.3815C17.5255 10.3852 16.0872 9.90241 14.8882 9.00129V15.286C14.8878 16.45 14.5489 17.5861 13.917 18.5425C13.285 19.4988 12.39 20.2298 11.3517 20.6376C10.3133 21.0455 9.18116 21.1108 8.10653 20.8248C7.0319 20.5388 6.06604 19.9152 5.33809 19.0373C4.61015 18.1594 4.15481 17.069 4.03298 15.9121C3.91115 14.7551 4.12862 13.5867 4.65632 12.563C5.18402 11.5394 5.99679 10.7092 6.98596 10.1837C7.97512 9.65809 9.09353 9.46212 10.1916 9.62195V12.7829C9.68915 12.617 9.14956 12.622 8.64993 12.7972C8.1503 12.9725 7.71618 13.309 7.40957 13.7587C7.10296 14.2085 6.93954 14.7484 6.94264 15.3015C6.94574 15.8546 7.11521 16.3925 7.42685 16.8384C7.73848 17.2843 8.17634 17.6155 8.6779 17.7845C9.17946 17.9536 9.71907 17.9519 10.2197 17.7797C10.7203 17.6076 11.1563 17.2737 11.4654 16.8259C11.7745 16.378 11.9409 15.8391 11.9409 15.286V3H14.8882C14.8862 3.26133 14.907 3.5223 14.9505 3.77961C15.0529 4.35403 15.2659 4.90047 15.5763 5.38551C15.8868 5.87055 16.2882 6.284 16.756 6.60056C17.4217 7.06266 18.202 7.30896 19 7.30879V10.3815Z" fill="#B5AB9A"/>
</g>
</svg>
