<svg width="17" height="16" viewBox="0 0 17 16" fill="none" xmlns="http://www.w3.org/2000/svg">
<g id="Icon / 24&#195;&#151;24 / Line / General / Eye" clip-path="url(#clip0_623_102)">
<path id="Exclude" fill-rule="evenodd" clip-rule="evenodd" d="M1.83337 8.00004C2.90013 5.26847 5.39073 3.33337 8.50004 3.33337C11.6094 3.33337 14.0999 5.26847 15.1667 8.00004C14.0999 10.7316 11.6094 12.6667 8.50004 12.6667C5.39073 12.6667 2.90013 10.7316 1.83337 8.00004ZM7.00004 8.00004C7.00004 7.17161 7.67161 6.50004 8.50004 6.50004C9.32847 6.50004 10 7.17161 10 8.00004C10 8.82847 9.32847 9.50004 8.50004 9.50004C7.67161 9.50004 7.00004 8.82847 7.00004 8.00004ZM8.50004 5.50004C7.11933 5.50004 6.00004 6.61933 6.00004 8.00004C6.00004 9.38075 7.11933 10.5 8.50004 10.5C9.88075 10.5 11 9.38075 11 8.00004C11 6.61933 9.88075 5.50004 8.50004 5.50004Z" fill="#808089"/>
</g>
<defs>
<clipPath id="clip0_623_102">
<rect width="16" height="16" fill="white" transform="translate(0.5)"/>
</clipPath>
</defs>
</svg>
