<svg width="24" height="24" viewBox="0 0 24 24" fill="none" xmlns="http://www.w3.org/2000/svg">
<g id="Social">
<path id="Vector" d="M20.6243 7.97076C20.5219 7.58914 20.321 7.24113 20.0417 6.96155C19.7625 6.68197 19.4147 6.48063 19.0333 6.37768C17.629 6 12 6 12 6C12 6 6.37098 6 4.96674 6.37567C4.58509 6.47828 4.23715 6.67951 3.95787 6.95914C3.67859 7.23877 3.4778 7.58697 3.37567 7.96875C3 9.375 3 12.308 3 12.308C3 12.308 3 15.2411 3.37567 16.6453C3.58259 17.4208 4.1933 18.0315 4.96674 18.2384C6.37098 18.6161 12 18.6161 12 18.6161C12 18.6161 17.629 18.6161 19.0333 18.2384C19.8087 18.0315 20.4174 17.4208 20.6243 16.6453C21 15.2411 21 12.308 21 12.308C21 12.308 21 9.375 20.6243 7.97076ZM10.2121 15V9.61607L14.8728 12.2879L10.2121 15Z" fill="#B5AB9A"/>
</g>
</svg>
