<svg width="16" height="16" viewBox="0 0 16 16" fill="none" xmlns="http://www.w3.org/2000/svg">
<g id="Like-outline">
<path id="Vector" d="M13.4435 8.03745C13.3472 8.16463 13.3174 8.33008 13.3633 8.48284C13.4049 8.62156 13.4269 8.76952 13.4297 8.92279C13.4288 9.25355 13.3198 9.57133 13.1232 9.8312C13.0269 9.95838 12.9971 10.1238 13.043 10.2766C13.085 10.4168 13.1062 10.5622 13.1062 10.711C13.1062 11.0432 12.9972 11.3625 12.7997 11.6234C12.7035 11.7506 12.6737 11.916 12.7195 12.0688C12.7616 12.209 12.7828 12.3543 12.7828 12.5032C12.7828 13.109 12.4229 13.6546 11.8632 13.8933L11.8632 13.8933L11.8604 13.8945C11.7963 13.9223 11.7237 13.9376 11.6453 13.9376H4.76562V7.83486L6.09445 3.02385L6.09455 3.02351C6.25032 2.45799 6.77151 2.06105 7.35938 2.06105L7.36124 2.06104C7.52066 2.06045 7.6785 2.09256 7.82502 2.15538C7.97155 2.2182 8.10363 2.3104 8.21311 2.42629L8.21385 2.42707C8.43868 2.66402 8.55341 2.97165 8.53808 3.29954C8.53807 3.29969 8.53806 3.29985 8.53805 3.3L8.44434 5.21948C8.43767 5.35615 8.48731 5.48959 8.58168 5.58869C8.67605 5.68778 8.80691 5.74386 8.94375 5.74386H12.6906H12.6911C12.7904 5.74377 12.8879 5.77021 12.9736 5.82046C13.4604 6.10604 13.75 6.61066 13.75 7.12511C13.75 7.45728 13.6409 7.77656 13.4435 8.03745ZM2.25 13.9376V8.25011H2.76562V13.9376H2.25Z" stroke="white" stroke-opacity="0.6" stroke-linejoin="round"/>
</g>
</svg>
