<svg width="20" height="20" viewBox="0 0 20 20" fill="none" xmlns="http://www.w3.org/2000/svg">
<g id="Icon Frame">
<path id="Ellipse 36" d="M6.66663 8.33333V5.83333C6.66663 3.99238 8.15901 2.5 9.99996 2.5C11.8409 2.5 13.3333 3.99238 13.3333 5.83333V8.33333" stroke="#B5AB9A" stroke-width="2" stroke-linecap="round"/>
<g id="Exclude">
<path fill-rule="evenodd" clip-rule="evenodd" d="M15.8333 8.33337H4.16663V15.5C4.16663 16.6046 5.06206 17.5 6.16663 17.5H13.8333C14.9379 17.5 15.8333 16.6046 15.8333 15.5V8.33337ZM12.0833 10.8334C10.9327 10.8334 9.99996 11.7661 9.99996 12.9167C9.99996 14.0673 10.9327 15 12.0833 15C13.2339 15 14.1666 14.0673 14.1666 12.9167C14.1666 11.7661 13.2339 10.8334 12.0833 10.8334Z" fill="#B5AB9A"/>
<path d="M4.16663 8.33337V7.83337H3.66663V8.33337H4.16663ZM15.8333 8.33337H16.3333V7.83337H15.8333V8.33337ZM9.99996 12.9167H9.49996H9.99996ZM12.0833 10.8334V10.3334V10.8334ZM12.0833 15V15.5V15ZM4.16663 8.83337H15.8333V7.83337H4.16663V8.83337ZM4.66663 15.5V8.33337H3.66663V15.5H4.66663ZM6.16663 17C5.3382 17 4.66663 16.3285 4.66663 15.5H3.66663C3.66663 16.8808 4.78592 18 6.16663 18V17ZM13.8333 17H6.16663V18H13.8333V17ZM15.3333 15.5C15.3333 16.3285 14.6617 17 13.8333 17V18C15.214 18 16.3333 16.8808 16.3333 15.5H15.3333ZM15.3333 8.33337V15.5H16.3333V8.33337H15.3333ZM10.5 12.9167C10.5 12.0423 11.2088 11.3334 12.0833 11.3334V10.3334C10.6566 10.3334 9.49996 11.49 9.49996 12.9167H10.5ZM12.0833 14.5C11.2088 14.5 10.5 13.7912 10.5 12.9167H9.49996C9.49996 14.3434 10.6566 15.5 12.0833 15.5V14.5ZM13.6666 12.9167C13.6666 13.7912 12.9577 14.5 12.0833 14.5V15.5C13.51 15.5 14.6666 14.3434 14.6666 12.9167H13.6666ZM12.0833 11.3334C12.9577 11.3334 13.6666 12.0423 13.6666 12.9167H14.6666C14.6666 11.49 13.51 10.3334 12.0833 10.3334V11.3334Z" fill="#B5AB9A"/>
</g>
</g>
</svg>
