<svg width="24" height="24" viewBox="0 0 24 24" fill="none" xmlns="http://www.w3.org/2000/svg">
<g id="Social">
<path id="Exclude" fill-rule="evenodd" clip-rule="evenodd" d="M20.25 12C20.25 16.9706 16.2206 21 11.25 21C6.27944 21 2.25 16.9706 2.25 12C2.25 7.02944 6.27944 3 11.25 3C16.2206 3 20.25 7.02944 20.25 12ZM8.36141 12.7634L6.16496 12.0477C6.16496 12.0477 5.90246 11.9412 5.98698 11.6997C6.00438 11.6499 6.03948 11.6075 6.14448 11.5347C6.63116 11.1955 15.1524 8.1327 15.1524 8.1327C15.1524 8.1327 15.393 8.05163 15.5349 8.10555C15.57 8.11642 15.6016 8.13641 15.6265 8.16349C15.6513 8.19057 15.6685 8.22377 15.6763 8.25968C15.6916 8.3231 15.6981 8.38835 15.6954 8.45355C15.6949 8.48812 15.6922 8.52113 15.689 8.56038C15.6869 8.58518 15.6847 8.61246 15.6827 8.6442C15.6308 9.48158 14.0777 15.7312 14.0777 15.7312C14.0777 15.7312 13.9848 16.0969 13.6518 16.1094C13.57 16.112 13.4885 16.0982 13.4122 16.0687C13.3358 16.0391 13.2662 15.9945 13.2075 15.9375C12.8568 15.6359 12.044 15.0591 11.2889 14.5377C11.0605 14.7298 10.6046 15.1242 10.1346 15.5943C9.46723 16.2618 9.55303 15.5943 9.55303 15.5943L9.758 13.4159L9.7621 13.4183C9.77154 13.396 9.78738 13.378 9.78738 13.378C9.78738 13.378 13.7193 9.88298 13.824 9.51608C13.8321 9.48765 13.8015 9.47363 13.7604 9.48608C13.4995 9.58206 8.98112 12.4354 8.47392 12.7556L8.47382 12.7557L8.47241 12.7566C8.43644 12.7675 8.39843 12.7698 8.36141 12.7634Z" fill="#B5AB9A"/>
</g>
</svg>
